<?xml version="1.0" encoding="UTF-8" standalone="no"?>
<svg
   xmlns:dc="http://purl.org/dc/elements/1.1/"
   xmlns:cc="http://creativecommons.org/ns#"
   xmlns:rdf="http://www.w3.org/1999/02/22-rdf-syntax-ns#"
   xmlns:svg="http://www.w3.org/2000/svg"
   xmlns="http://www.w3.org/2000/svg"
   version="1.1"
   id="svg2"
   viewBox="0 0 32 32.000001"
   height="32"
   width="32">
  <defs
     id="defs4">
    <filter
       id="filter4429"
       style="color-interpolation-filters:sRGB;">
      <feFlood
         id="feFlood4431"
         result="flood"
         flood-color="rgb(0,0,0)"
         flood-opacity="0.501961" />
      <feComposite
         id="feComposite4433"
         result="composite1"
         operator="in"
         in2="SourceGraphic"
         in="flood" />
      <feGaussianBlur
         id="feGaussianBlur4435"
         result="blur"
         stdDeviation="0"
         in="composite1" />
      <feOffset
         id="feOffset4437"
         result="offset"
         dy="-2"
         dx="0" />
      <feComposite
         id="feComposite4439"
         result="composite2"
         operator="over"
         in2="offset"
         in="SourceGraphic" />
    </filter>
    <filter
       id="filter4238"
       style="color-interpolation-filters:sRGB;">
      <feFlood
         id="feFlood4240"
         result="flood"
         flood-color="rgb(0,0,0)"
         flood-opacity="0.501961" />
      <feComposite
         id="feComposite4242"
         result="composite1"
         operator="in"
         in2="SourceGraphic"
         in="flood" />
      <feGaussianBlur
         id="feGaussianBlur4244"
         result="blur"
         stdDeviation="0"
         in="composite1" />
      <feOffset
         id="feOffset4246"
         result="offset"
         dy="-2"
         dx="0" />
      <feComposite
         id="feComposite4248"
         result="composite2"
         operator="over"
         in2="offset"
         in="SourceGraphic" />
    </filter>
  </defs>
  <metadata
     id="metadata7">
    <rdf:RDF>
      <cc:Work
         rdf:about="">
        <dc:format>image/svg+xml</dc:format>
        <dc:type
           rdf:resource="http://purl.org/dc/dcmitype/StillImage" />
        <dc:title></dc:title>
        <dc:creator>
          <cc:Agent>
            <dc:title>Andrei Rudenko</dc:title>
          </cc:Agent>
        </dc:creator>
      </cc:Work>
    </rdf:RDF>
  </metadata>
  <g
     style="display:inline"
     id="layer4" />
  <g
     id="layer1">
    <g
       transform="matrix(0.8984375,0,0,0.8984375,0,3.2499999)"
       id="g2123" />
    <path
       d="M 4.9726562,0 V 2.375 H 29.625 V 27.027344 H 32 V 0 Z M 19.200592,16.496689 A 5.4202126,5.4202126 0 0 1 14.375,19.451706 5.4202126,5.4202126 0 0 1 9.5476531,16.498444 c -1.5535652,0.270995 -3.086006,0.668324 -4.5746612,1.189727 v 9.338837 H 23.777008 V 17.688171 C 22.287706,17.166542 20.754851,16.76769 19.200592,16.496689 Z M 17.96875,14.03125 A 3.5937504,3.5937504 0 0 1 14.375,17.625 3.5937504,3.5937504 0 0 1 10.78125,14.03125 3.5937504,3.5937504 0 0 1 14.375,10.437499 3.5937504,3.5937504 0 0 1 17.96875,14.03125 M 28.75,21.218749 V 14.03125 h -3.59375 v 7.187499 z m 0,-10.78125 v -3.5937495 -3.59375 h -7.1875 v 3.59375 h 3.59375 V 10.437499 Z M 17.96875,6.8437495 v -3.59375 h -7.1875 v 3.59375 z M 0,3.2499999 V 6.8437499 10.4375 H 3.59375 V 6.8437499 H 7.1875 v -3.59375 z M 0,14.03125 v 7.1875 h 3.59375 v -7.1875 z M 0,24.8125 V 28.40625 32 H 7.1875 V 28.40625 H 3.59375 V 24.8125 Z m 25.15625,0 v 3.59375 H 21.5625 V 32 H 28.75 V 28.40625 24.8125 Z m -14.375,3.59375 V 32 h 7.1875 v -3.59375 z"
       style="fill:#373737;fill-opacity:1;stroke:none;stroke-width:5.5018;stroke-miterlimit:4;stroke-dasharray:none;stroke-dashoffset:0;stroke-opacity:1"
       id="rect2125" />
  </g>
</svg>
