<?xml version="1.0" encoding="UTF-8" standalone="no"?>
<svg
   xmlns:dc="http://purl.org/dc/elements/1.1/"
   xmlns:cc="http://creativecommons.org/ns#"
   xmlns:rdf="http://www.w3.org/1999/02/22-rdf-syntax-ns#"
   xmlns:svg="http://www.w3.org/2000/svg"
   xmlns="http://www.w3.org/2000/svg"
   width="32"
   height="32"
   viewBox="0 0 32 32.000001"
   id="svg2"
   version="1.1">
  <defs
     id="defs4" />
  <metadata
     id="metadata7">
    <rdf:RDF>
      <cc:Work
         rdf:about="">
        <dc:format>image/svg+xml</dc:format>
        <dc:type
           rdf:resource="http://purl.org/dc/dcmitype/StillImage" />
        <dc:title></dc:title>
        <dc:creator>
          <cc:Agent>
            <dc:title>Andrei Rudenko</dc:title>
          </cc:Agent>
        </dc:creator>
        <cc:license
           rdf:resource="http://creativecommons.org/licenses/by-sa/4.0/" />
      </cc:Work>
      <cc:License
         rdf:about="http://creativecommons.org/licenses/by-sa/4.0/">
        <cc:permits
           rdf:resource="http://creativecommons.org/ns#Reproduction" />
        <cc:permits
           rdf:resource="http://creativecommons.org/ns#Distribution" />
        <cc:requires
           rdf:resource="http://creativecommons.org/ns#Notice" />
        <cc:requires
           rdf:resource="http://creativecommons.org/ns#Attribution" />
        <cc:permits
           rdf:resource="http://creativecommons.org/ns#DerivativeWorks" />
        <cc:requires
           rdf:resource="http://creativecommons.org/ns#ShareAlike" />
      </cc:License>
    </rdf:RDF>
  </metadata>
  <g
     style="display:none"
     id="layer3">
    <rect
       y="-5.9999996e-007"
       x="28"
       height="30"
       width="4"
       id="rect4483"
       style="opacity:1;fill:#cacaca;fill-opacity:1;stroke:none;stroke-width:2;stroke-linecap:butt;stroke-linejoin:bevel;stroke-miterlimit:4;stroke-dasharray:none;stroke-dashoffset:1;stroke-opacity:0.50196078" />
    <path
       id="rect4485-8"
       d="m 0,0 0,2 2,0 0,2 2,0 0,2 2,0 0,2 2,0 0,2 2,0 0,2 2,0 0,2 2,0 0,2 2,0 0,2 2,0 0,2 2,0 0,2 2,0 0,2 2,0 0,2 2,0 0,2 2,0 0,-4 -2,0 0,-2 -2,0 0,-2 -2,0 0,-2 -2,0 0,-2 -2,0 0,-2 -2,0 0,-2 -2,0 0,-2 -2,0 L 12,8 10,8 10,6 8,6 8,4 6,4 6,2 4,2 4,0 2,0 0,0 Z"
       style="display:inline;opacity:1;fill:#cacaca;fill-opacity:1;stroke:none;stroke-width:2;stroke-linecap:butt;stroke-linejoin:bevel;stroke-miterlimit:4;stroke-dasharray:none;stroke-dashoffset:1;stroke-opacity:0.50196078" />
    <path
       id="path4583"
       d="M 16.456345,15.536612 C 18.1875,10.6875 26.125,9.2499996 30.125,13.25"
       style="fill:none;fill-rule:evenodd;stroke:#cacaca;stroke-width:2;stroke-linecap:butt;stroke-linejoin:miter;stroke-miterlimit:4;stroke-dasharray:none;stroke-opacity:1" />
  </g>
  <path
     id="rect2125"
     style="fill:#cacaca;fill-opacity:1;stroke:none;stroke-width:5.5018;stroke-miterlimit:4;stroke-dasharray:none;stroke-dashoffset:0;stroke-opacity:1"
     d="M 4.9726561,0 V 2.375 H 29.625 V 27.027345 H 32 V 0 Z M 19.200592,16.49669 A 5.4202126,5.4202126 0 0 1 14.375,19.451707 5.4202126,5.4202126 0 0 1 9.5476531,16.498445 C 7.9940881,16.76944 6.461647,17.166769 4.9729918,17.688172 v 9.338837 H 23.777008 V 17.688172 C 22.287706,17.166543 20.754851,16.767691 19.200592,16.49669 Z M 17.96875,14.03125 A 3.5937504,3.5937504 0 0 1 14.375,17.625001 3.5937504,3.5937504 0 0 1 10.78125,14.03125 3.5937504,3.5937504 0 0 1 14.375,10.437499 3.5937504,3.5937504 0 0 1 17.96875,14.03125 M 28.75,21.21875 v -7.1875 h -3.59375 v 7.1875 z m 0,-10.781251 v -3.5937495 -3.59375 h -7.1875 v 3.59375 h 3.59375 V 10.437499 Z M 17.96875,6.8437495 v -3.59375 h -7.1875 v 3.59375 z M -8.9999999e-8,3.2499999 V 6.8437499 10.4375 H 3.5937499 V 6.8437499 h 3.5937502 v -3.59375 z m 0,10.7812501 v 7.187501 H 3.5937499 V 14.03125 Z m 0,10.781251 v 3.59375 3.59375 H 7.1875001 v -3.59375 H 3.5937499 v -3.59375 z m 25.15625009,0 v 3.59375 H 21.5625 v 3.59375 H 28.75 v -3.59375 -3.59375 z m -14.375,3.59375 v 3.59375 h 7.1875 v -3.59375 z" />
</svg>
